<svg xmlns="http://www.w3.org/2000/svg" xmlns:xlink="http://www.w3.org/1999/xlink" width="1366" zoomAndPan="magnify" viewBox="0 0 1024.5 576" height="768" preserveAspectRatio="xMidYMid meet" version="1.0"><defs><g/></defs><g fill="#ffffff" fill-opacity="1"><g transform="translate(48.03221, 335.875668)"><g><path d="M 82.765625 -162.953125 L 82.765625 -46.015625 C 82.765625 -30.085938 78.382812 -17.941406 69.625 -9.578125 C 60.863281 -1.210938 48.320312 2.96875 32 2.96875 C 27.65625 2.96875 23.375 2.4375 19.15625 1.375 C 14.945312 0.320312 11.390625 -0.957031 8.484375 -2.46875 C 5.585938 -3.976562 2.988281 -5.523438 0.6875 -7.109375 C -1.613281 -8.691406 -3.289062 -10.007812 -4.34375 -11.0625 L -6.125 -12.640625 L 5.734375 -43.65625 C 13.492188 -36.28125 20.535156 -32.59375 26.859375 -32.59375 C 32.523438 -32.59375 37.066406 -34.46875 40.484375 -38.21875 C 43.910156 -41.96875 45.625 -47.726562 45.625 -55.5 L 45.625 -162.953125 Z M 82.765625 -162.953125 "/></g></g></g><g fill="#ffffff" fill-opacity="1"><g transform="translate(122.099575, 335.875668)"><g><path d="M 105.078125 -162.953125 L 105.078125 -130.359375 L 48.984375 -130.359375 L 48.984375 -97.96875 L 102.703125 -97.96875 L 102.703125 -65.375 L 48.984375 -65.375 L 48.984375 -32.59375 L 105.078125 -32.59375 L 105.078125 0 L 11.84375 0 L 11.84375 -162.953125 Z M 105.078125 -162.953125 "/></g></g></g><g fill="#ffffff" fill-opacity="1"><g transform="translate(218.090913, 335.875668)"><g><path d="M 71.890625 -165.90625 C 80.710938 -165.90625 89.335938 -164.617188 97.765625 -162.046875 C 106.191406 -159.484375 112.445312 -156.953125 116.53125 -154.453125 L 122.453125 -150.5 L 107.453125 -120.875 C 106.265625 -121.664062 104.613281 -122.6875 102.5 -123.9375 C 100.394531 -125.1875 96.445312 -126.863281 90.65625 -128.96875 C 84.863281 -131.082031 79.46875 -132.140625 74.46875 -132.140625 C 68.28125 -132.140625 63.503906 -130.820312 60.140625 -128.1875 C 56.785156 -125.550781 55.109375 -121.992188 55.109375 -117.515625 C 55.109375 -115.285156 55.894531 -113.210938 57.46875 -111.296875 C 59.050781 -109.390625 61.75 -107.347656 65.5625 -105.171875 C 69.382812 -103.003906 72.742188 -101.257812 75.640625 -99.9375 C 78.546875 -98.625 83.023438 -96.648438 89.078125 -94.015625 C 99.609375 -89.535156 108.59375 -83.441406 116.03125 -75.734375 C 123.476562 -68.035156 127.203125 -59.316406 127.203125 -49.578125 C 127.203125 -40.222656 125.519531 -32.054688 122.15625 -25.078125 C 118.800781 -18.097656 114.191406 -12.632812 108.328125 -8.6875 C 102.472656 -4.738281 95.988281 -1.8125 88.875 0.09375 C 81.769531 2.007812 74.066406 2.96875 65.765625 2.96875 C 58.660156 2.96875 51.679688 2.242188 44.828125 0.796875 C 37.984375 -0.648438 32.253906 -2.460938 27.640625 -4.640625 C 23.035156 -6.816406 18.890625 -8.957031 15.203125 -11.0625 C 11.515625 -13.164062 8.816406 -14.941406 7.109375 -16.390625 L 4.546875 -18.5625 L 23.109375 -49.78125 C 24.691406 -48.457031 26.863281 -46.773438 29.625 -44.734375 C 32.394531 -42.691406 37.300781 -39.957031 44.34375 -36.53125 C 51.382812 -33.113281 57.601562 -31.40625 63 -31.40625 C 78.675781 -31.40625 86.515625 -36.738281 86.515625 -47.40625 C 86.515625 -49.644531 85.953125 -51.71875 84.828125 -53.625 C 83.710938 -55.53125 81.738281 -57.4375 78.90625 -59.34375 C 76.070312 -61.257812 73.566406 -62.773438 71.390625 -63.890625 C 69.222656 -65.015625 65.671875 -66.726562 60.734375 -69.03125 C 55.796875 -71.332031 52.144531 -73.078125 49.78125 -74.265625 C 39.894531 -79.140625 32.253906 -85.226562 26.859375 -92.53125 C 21.460938 -99.84375 18.765625 -107.710938 18.765625 -116.140625 C 18.765625 -130.753906 24.160156 -142.703125 34.953125 -151.984375 C 45.753906 -161.265625 58.066406 -165.90625 71.890625 -165.90625 Z M 71.890625 -165.90625 "/></g></g></g><g fill="#ffffff" fill-opacity="1"><g transform="translate(332.253511, 335.875668)"><g><path d="M 50.171875 -192.78125 L 90.265625 -227.53125 L 108.234375 -204.828125 L 61.234375 -177.5625 Z M 99.9375 -162.953125 L 99.9375 -68.734375 C 99.9375 -55.566406 97.863281 -46.414062 93.71875 -41.28125 C 89.570312 -36.144531 82.820312 -33.578125 73.46875 -33.578125 C 64.125 -33.578125 57.378906 -36.144531 53.234375 -41.28125 C 49.085938 -46.414062 47.015625 -55.566406 47.015625 -68.734375 L 47.015625 -162.953125 L 9.875 -162.953125 L 9.875 -57.875 C 9.875 -37.851562 15.269531 -22.707031 26.0625 -12.4375 C 36.863281 -2.164062 52.664062 2.96875 73.46875 2.96875 C 94.28125 2.96875 110.082031 -2.164062 120.875 -12.4375 C 131.675781 -22.707031 137.078125 -37.851562 137.078125 -57.875 L 137.078125 -162.953125 Z M 99.9375 -162.953125 "/></g></g></g><g fill="#ffffff" fill-opacity="1"><g transform="translate(460.637071, 335.875668)"><g><path d="M 71.890625 -165.90625 C 80.710938 -165.90625 89.335938 -164.617188 97.765625 -162.046875 C 106.191406 -159.484375 112.445312 -156.953125 116.53125 -154.453125 L 122.453125 -150.5 L 107.453125 -120.875 C 106.265625 -121.664062 104.613281 -122.6875 102.5 -123.9375 C 100.394531 -125.1875 96.445312 -126.863281 90.65625 -128.96875 C 84.863281 -131.082031 79.46875 -132.140625 74.46875 -132.140625 C 68.28125 -132.140625 63.503906 -130.820312 60.140625 -128.1875 C 56.785156 -125.550781 55.109375 -121.992188 55.109375 -117.515625 C 55.109375 -115.285156 55.894531 -113.210938 57.46875 -111.296875 C 59.050781 -109.390625 61.75 -107.347656 65.5625 -105.171875 C 69.382812 -103.003906 72.742188 -101.257812 75.640625 -99.9375 C 78.546875 -98.625 83.023438 -96.648438 89.078125 -94.015625 C 99.609375 -89.535156 108.59375 -83.441406 116.03125 -75.734375 C 123.476562 -68.035156 127.203125 -59.316406 127.203125 -49.578125 C 127.203125 -40.222656 125.519531 -32.054688 122.15625 -25.078125 C 118.800781 -18.097656 114.191406 -12.632812 108.328125 -8.6875 C 102.472656 -4.738281 95.988281 -1.8125 88.875 0.09375 C 81.769531 2.007812 74.066406 2.96875 65.765625 2.96875 C 58.660156 2.96875 51.679688 2.242188 44.828125 0.796875 C 37.984375 -0.648438 32.253906 -2.460938 27.640625 -4.640625 C 23.035156 -6.816406 18.890625 -8.957031 15.203125 -11.0625 C 11.515625 -13.164062 8.816406 -14.941406 7.109375 -16.390625 L 4.546875 -18.5625 L 23.109375 -49.78125 C 24.691406 -48.457031 26.863281 -46.773438 29.625 -44.734375 C 32.394531 -42.691406 37.300781 -39.957031 44.34375 -36.53125 C 51.382812 -33.113281 57.601562 -31.40625 63 -31.40625 C 78.675781 -31.40625 86.515625 -36.738281 86.515625 -47.40625 C 86.515625 -49.644531 85.953125 -51.71875 84.828125 -53.625 C 83.710938 -55.53125 81.738281 -57.4375 78.90625 -59.34375 C 76.070312 -61.257812 73.566406 -62.773438 71.390625 -63.890625 C 69.222656 -65.015625 65.671875 -66.726562 60.734375 -69.03125 C 55.796875 -71.332031 52.144531 -73.078125 49.78125 -74.265625 C 39.894531 -79.140625 32.253906 -85.226562 26.859375 -92.53125 C 21.460938 -99.84375 18.765625 -107.710938 18.765625 -116.140625 C 18.765625 -130.753906 24.160156 -142.703125 34.953125 -151.984375 C 45.753906 -161.265625 58.066406 -165.90625 71.890625 -165.90625 Z M 71.890625 -165.90625 "/></g></g></g><g fill="#ffffff" fill-opacity="1"><g transform="translate(574.799658, 335.875668)"><g><path d="M 11.84375 -162.953125 L 71.296875 -162.953125 C 87.890625 -162.953125 101.320312 -158.671875 111.59375 -150.109375 C 121.863281 -141.546875 127 -129.101562 127 -112.78125 C 127 -96.457031 121.796875 -83.648438 111.390625 -74.359375 C 100.992188 -65.078125 87.628906 -60.4375 71.296875 -60.4375 L 48.984375 -60.4375 L 48.984375 0 L 11.84375 0 Z M 48.984375 -90.0625 L 59.453125 -90.0625 C 67.742188 -90.0625 74.554688 -91.738281 79.890625 -95.09375 C 85.222656 -98.457031 87.890625 -103.957031 87.890625 -111.59375 C 87.890625 -119.363281 85.222656 -124.925781 79.890625 -128.28125 C 74.554688 -131.644531 67.742188 -133.328125 59.453125 -133.328125 L 48.984375 -133.328125 Z M 48.984375 -90.0625 "/></g></g></g><g fill="#ffffff" fill-opacity="1"><g transform="translate(687.777169, 335.875668)"><g><path d="M 94.609375 -162.953125 L 160.375 0 L 120.484375 0 L 108.4375 -32.59375 L 46.421875 -32.59375 L 34.375 0 L -5.53125 0 L 60.25 -162.953125 Z M 95.796875 -65.1875 L 77.625 -112.578125 L 77.234375 -112.578125 L 59.0625 -65.1875 Z M 95.796875 -65.1875 "/></g></g></g><g fill="#ffffff" fill-opacity="1"><g transform="translate(824.061281, 335.875668)"><g><path d="M 148.734375 -162.953125 L 67.953125 -32.59375 L 143.390625 -32.59375 L 143.390625 0 L 3.15625 0 L 83.75 -130.359375 L 14.609375 -130.359375 L 14.609375 -162.953125 Z M 148.734375 -162.953125 "/></g></g></g><g fill="#ffffff" fill-opacity="1"><g transform="translate(422.509868, 390.750248)"><g><path d="M 7.1875 -24.171875 L 7.1875 -15.9375 L 16.96875 -15.9375 C 17.53125 -15.9375 17.988281 -15.765625 18.34375 -15.421875 C 18.695312 -15.078125 18.875 -14.628906 18.875 -14.078125 C 18.875 -13.597656 18.695312 -13.1875 18.34375 -12.84375 C 17.988281 -12.5 17.53125 -12.328125 16.96875 -12.328125 L 7.1875 -12.328125 L 7.1875 -1.90625 C 7.1875 -1.375 6.992188 -0.921875 6.609375 -0.546875 C 6.234375 -0.179688 5.78125 0 5.25 0 C 4.6875 0 4.21875 -0.179688 3.84375 -0.546875 C 3.476562 -0.921875 3.296875 -1.375 3.296875 -1.90625 L 3.296875 -25.921875 C 3.296875 -26.453125 3.476562 -26.898438 3.84375 -27.265625 C 4.21875 -27.640625 4.671875 -27.828125 5.203125 -27.828125 L 18.765625 -27.828125 C 19.316406 -27.828125 19.769531 -27.65625 20.125 -27.3125 C 20.488281 -26.96875 20.671875 -26.515625 20.671875 -25.953125 C 20.671875 -25.472656 20.484375 -25.054688 20.109375 -24.703125 C 19.742188 -24.347656 19.296875 -24.171875 18.765625 -24.171875 Z M 7.1875 -24.171875 "/></g></g></g><g fill="#ffffff" fill-opacity="1"><g transform="translate(447.309616, 390.750248)"><g><path d="M 7.234375 -1.953125 C 7.234375 -1.390625 7.035156 -0.921875 6.640625 -0.546875 C 6.242188 -0.179688 5.78125 0 5.25 0 C 4.664062 0 4.191406 -0.179688 3.828125 -0.546875 C 3.472656 -0.921875 3.296875 -1.390625 3.296875 -1.953125 L 3.296875 -25.921875 C 3.296875 -26.453125 3.476562 -26.898438 3.84375 -27.265625 C 4.21875 -27.640625 4.695312 -27.828125 5.28125 -27.828125 C 5.8125 -27.828125 6.269531 -27.640625 6.65625 -27.265625 C 7.039062 -26.898438 7.234375 -26.453125 7.234375 -25.921875 Z M 7.234375 -1.953125 "/></g></g></g><g fill="#ffffff" fill-opacity="1"><g transform="translate(460.226389, 390.750248)"><g><path d="M 24.09375 -27.828125 C 24.59375 -27.828125 25 -27.660156 25.3125 -27.328125 C 25.632812 -26.992188 25.796875 -26.578125 25.796875 -26.078125 L 25.796875 -1.953125 C 25.796875 -1.390625 25.613281 -0.921875 25.25 -0.546875 C 24.894531 -0.179688 24.441406 0 23.890625 0 C 23.597656 0 23.3125 -0.046875 23.03125 -0.140625 C 22.757812 -0.234375 22.539062 -0.375 22.375 -0.5625 L 6.75 -20.90625 L 6.75 -1.75 C 6.75 -1.25 6.582031 -0.832031 6.25 -0.5 C 5.925781 -0.164062 5.515625 0 5.015625 0 C 4.503906 0 4.085938 -0.164062 3.765625 -0.5 C 3.453125 -0.832031 3.296875 -1.25 3.296875 -1.75 L 3.296875 -25.921875 C 3.296875 -26.472656 3.472656 -26.925781 3.828125 -27.28125 C 4.191406 -27.644531 4.640625 -27.828125 5.171875 -27.828125 C 5.484375 -27.828125 5.785156 -27.765625 6.078125 -27.640625 C 6.367188 -27.523438 6.59375 -27.363281 6.75 -27.15625 L 22.34375 -6.75 L 22.34375 -26.078125 C 22.34375 -26.578125 22.503906 -26.992188 22.828125 -27.328125 C 23.160156 -27.660156 23.582031 -27.828125 24.09375 -27.828125 Z M 24.09375 -27.828125 "/></g></g></g><g fill="#ffffff" fill-opacity="1"><g transform="translate(491.70285, 390.750248)"><g><path d="M 24.6875 -2.46875 C 24.757812 -2.226562 24.796875 -1.972656 24.796875 -1.703125 C 24.796875 -1.179688 24.617188 -0.742188 24.265625 -0.390625 C 23.910156 -0.046875 23.492188 0.125 23.015625 0.125 C 22.640625 0.125 22.300781 0.0078125 22 -0.21875 C 21.695312 -0.445312 21.453125 -0.757812 21.265625 -1.15625 L 18.796875 -7 L 6.515625 -7 L 4.09375 -1.109375 C 3.957031 -0.710938 3.738281 -0.40625 3.4375 -0.1875 C 3.132812 0.0195312 2.796875 0.125 2.421875 0.125 C 1.867188 0.125 1.445312 -0.0195312 1.15625 -0.3125 C 0.863281 -0.601562 0.71875 -1.003906 0.71875 -1.515625 C 0.71875 -1.617188 0.742188 -1.828125 0.796875 -2.140625 L 10.9375 -26.71875 C 11.113281 -27.132812 11.367188 -27.457031 11.703125 -27.6875 C 12.035156 -27.914062 12.414062 -28 12.84375 -27.9375 C 13.238281 -27.9375 13.59375 -27.832031 13.90625 -27.625 C 14.226562 -27.414062 14.457031 -27.113281 14.59375 -26.71875 Z M 8.03125 -10.609375 L 17.296875 -10.609375 L 12.640625 -21.75 Z M 8.03125 -10.609375 "/></g></g></g><g fill="#ffffff" fill-opacity="1"><g transform="translate(519.602505, 390.750248)"><g><path d="M 24.09375 -27.828125 C 24.59375 -27.828125 25 -27.660156 25.3125 -27.328125 C 25.632812 -26.992188 25.796875 -26.578125 25.796875 -26.078125 L 25.796875 -1.953125 C 25.796875 -1.390625 25.613281 -0.921875 25.25 -0.546875 C 24.894531 -0.179688 24.441406 0 23.890625 0 C 23.597656 0 23.3125 -0.046875 23.03125 -0.140625 C 22.757812 -0.234375 22.539062 -0.375 22.375 -0.5625 L 6.75 -20.90625 L 6.75 -1.75 C 6.75 -1.25 6.582031 -0.832031 6.25 -0.5 C 5.925781 -0.164062 5.515625 0 5.015625 0 C 4.503906 0 4.085938 -0.164062 3.765625 -0.5 C 3.453125 -0.832031 3.296875 -1.25 3.296875 -1.75 L 3.296875 -25.921875 C 3.296875 -26.472656 3.472656 -26.925781 3.828125 -27.28125 C 4.191406 -27.644531 4.640625 -27.828125 5.171875 -27.828125 C 5.484375 -27.828125 5.785156 -27.765625 6.078125 -27.640625 C 6.367188 -27.523438 6.59375 -27.363281 6.75 -27.15625 L 22.34375 -6.75 L 22.34375 -26.078125 C 22.34375 -26.578125 22.503906 -26.992188 22.828125 -27.328125 C 23.160156 -27.660156 23.582031 -27.828125 24.09375 -27.828125 Z M 24.09375 -27.828125 "/></g></g></g><g fill="#ffffff" fill-opacity="1"><g transform="translate(551.078971, 390.750248)"><g><path d="M 23.140625 -26.203125 C 23.773438 -25.847656 24.09375 -25.316406 24.09375 -24.609375 C 24.09375 -24.128906 23.929688 -23.691406 23.609375 -23.296875 C 23.296875 -22.867188 22.859375 -22.65625 22.296875 -22.65625 C 21.929688 -22.65625 21.570312 -22.75 21.21875 -22.9375 C 19.582031 -23.863281 17.8125 -24.328125 15.90625 -24.328125 C 13.914062 -24.328125 12.15625 -23.890625 10.625 -23.015625 C 9.101562 -22.140625 7.914062 -20.910156 7.0625 -19.328125 C 6.21875 -17.753906 5.796875 -15.945312 5.796875 -13.90625 C 5.796875 -11.707031 6.234375 -9.8125 7.109375 -8.21875 C 7.984375 -6.632812 9.1875 -5.425781 10.71875 -4.59375 C 12.257812 -3.757812 13.988281 -3.34375 15.90625 -3.34375 C 17.863281 -3.34375 19.632812 -3.816406 21.21875 -4.765625 C 21.539062 -4.929688 21.890625 -5.015625 22.265625 -5.015625 C 22.847656 -5.015625 23.3125 -4.785156 23.65625 -4.328125 C 23.96875 -3.929688 24.125 -3.507812 24.125 -3.0625 C 24.125 -2.738281 24.035156 -2.4375 23.859375 -2.15625 C 23.691406 -1.882812 23.460938 -1.671875 23.171875 -1.515625 C 22.140625 -0.929688 20.976562 -0.46875 19.6875 -0.125 C 18.40625 0.21875 17.144531 0.390625 15.90625 0.390625 C 13.332031 0.390625 10.960938 -0.175781 8.796875 -1.3125 C 6.640625 -2.445312 4.914062 -4.101562 3.625 -6.28125 C 2.34375 -8.457031 1.703125 -11 1.703125 -13.90625 C 1.703125 -16.582031 2.316406 -19 3.546875 -21.15625 C 4.785156 -23.320312 6.484375 -25.019531 8.640625 -26.25 C 10.804688 -27.488281 13.226562 -28.109375 15.90625 -28.109375 C 18.46875 -28.109375 20.878906 -27.472656 23.140625 -26.203125 Z M 23.140625 -26.203125 "/></g></g></g><g fill="#ffffff" fill-opacity="1"><g transform="translate(578.819653, 390.750248)"><g><path d="M 19.046875 -3.65625 C 19.597656 -3.65625 20.050781 -3.46875 20.40625 -3.09375 C 20.769531 -2.726562 20.953125 -2.289062 20.953125 -1.78125 C 20.953125 -1.257812 20.769531 -0.832031 20.40625 -0.5 C 20.050781 -0.164062 19.597656 0 19.046875 0 L 5.203125 0 C 4.671875 0 4.21875 -0.179688 3.84375 -0.546875 C 3.476562 -0.921875 3.296875 -1.375 3.296875 -1.90625 L 3.296875 -25.921875 C 3.296875 -26.453125 3.476562 -26.898438 3.84375 -27.265625 C 4.21875 -27.640625 4.671875 -27.828125 5.203125 -27.828125 L 19.046875 -27.828125 C 19.597656 -27.828125 20.050781 -27.65625 20.40625 -27.3125 C 20.769531 -26.96875 20.953125 -26.515625 20.953125 -25.953125 C 20.953125 -25.421875 20.769531 -24.988281 20.40625 -24.65625 C 20.050781 -24.332031 19.597656 -24.171875 19.046875 -24.171875 L 7.234375 -24.171875 L 7.234375 -16.0625 L 17.25 -16.0625 C 17.8125 -16.0625 18.269531 -15.890625 18.625 -15.546875 C 18.976562 -15.203125 19.15625 -14.765625 19.15625 -14.234375 C 19.15625 -13.671875 18.976562 -13.226562 18.625 -12.90625 C 18.269531 -12.59375 17.8125 -12.4375 17.25 -12.4375 L 7.234375 -12.4375 L 7.234375 -3.65625 Z M 19.046875 -3.65625 "/></g></g></g></svg>