<svg xmlns="http://www.w3.org/2000/svg" xmlns:xlink="http://www.w3.org/1999/xlink" width="1366" zoomAndPan="magnify" viewBox="0 0 1024.5 258.74999" height="768" preserveAspectRatio="xMidYMid meet" version="1.0"><defs><g/></defs><g fill="#ffffff" fill-opacity="1"><g transform="translate(42.728325, 209.516925)"><g><path d="M 83.703125 -164.8125 L 83.703125 -46.546875 C 83.703125 -30.429688 79.273438 -18.144531 70.421875 -9.6875 C 61.566406 -1.226562 48.878906 3 32.359375 3 C 27.960938 3 23.632812 2.460938 19.375 1.390625 C 15.113281 0.328125 11.515625 -0.96875 8.578125 -2.5 C 5.648438 -4.03125 3.019531 -5.59375 0.6875 -7.1875 C -1.632812 -8.789062 -3.328125 -10.125 -4.390625 -11.1875 L -6.1875 -12.78125 L 5.796875 -44.140625 C 13.648438 -36.691406 20.773438 -32.96875 27.171875 -32.96875 C 32.898438 -32.96875 37.492188 -34.863281 40.953125 -38.65625 C 44.410156 -42.445312 46.140625 -48.273438 46.140625 -56.140625 L 46.140625 -164.8125 Z M 83.703125 -164.8125 "/></g></g></g><g fill="#ffffff" fill-opacity="1"><g transform="translate(117.642634, 209.516925)"><g><path d="M 106.28125 -164.8125 L 106.28125 -131.84375 L 49.546875 -131.84375 L 49.546875 -99.078125 L 103.875 -99.078125 L 103.875 -66.125 L 49.546875 -66.125 L 49.546875 -32.96875 L 106.28125 -32.96875 L 106.28125 0 L 11.984375 0 L 11.984375 -164.8125 Z M 106.28125 -164.8125 "/></g></g></g><g fill="#ffffff" fill-opacity="1"><g transform="translate(214.731613, 209.516925)"><g><path d="M 72.71875 -167.796875 C 81.632812 -167.796875 90.351562 -166.5 98.875 -163.90625 C 107.40625 -161.3125 113.734375 -158.75 117.859375 -156.21875 L 123.859375 -152.21875 L 108.671875 -122.25 C 107.472656 -123.050781 105.804688 -124.082031 103.671875 -125.34375 C 101.546875 -126.613281 97.550781 -128.3125 91.6875 -130.4375 C 85.832031 -132.570312 80.375 -133.640625 75.3125 -133.640625 C 69.050781 -133.640625 64.222656 -132.304688 60.828125 -129.640625 C 57.429688 -126.984375 55.734375 -123.390625 55.734375 -118.859375 C 55.734375 -116.597656 56.53125 -114.5 58.125 -112.5625 C 59.726562 -110.632812 62.457031 -108.570312 66.3125 -106.375 C 70.175781 -104.175781 73.570312 -102.410156 76.5 -101.078125 C 79.4375 -99.742188 83.96875 -97.75 90.09375 -95.09375 C 100.75 -90.5625 109.835938 -84.398438 117.359375 -76.609375 C 124.890625 -68.816406 128.65625 -59.992188 128.65625 -50.140625 C 128.65625 -40.679688 126.957031 -32.421875 123.5625 -25.359375 C 120.164062 -18.304688 115.503906 -12.78125 109.578125 -8.78125 C 103.648438 -4.789062 97.085938 -1.832031 89.890625 0.09375 C 82.703125 2.03125 74.910156 3 66.515625 3 C 59.328125 3 52.269531 2.265625 45.34375 0.796875 C 38.414062 -0.660156 32.617188 -2.488281 27.953125 -4.6875 C 23.296875 -6.882812 19.101562 -9.050781 15.375 -11.1875 C 11.644531 -13.320312 8.914062 -15.117188 7.1875 -16.578125 L 4.59375 -18.78125 L 23.375 -50.34375 C 24.96875 -49.007812 27.160156 -47.3125 29.953125 -45.25 C 32.753906 -43.1875 37.71875 -40.421875 44.84375 -36.953125 C 51.96875 -33.492188 58.257812 -31.765625 63.71875 -31.765625 C 79.570312 -31.765625 87.5 -37.15625 87.5 -47.9375 C 87.5 -50.207031 86.929688 -52.304688 85.796875 -54.234375 C 84.660156 -56.171875 82.660156 -58.101562 79.796875 -60.03125 C 76.941406 -61.957031 74.414062 -63.488281 72.21875 -64.625 C 70.019531 -65.757812 66.421875 -67.488281 61.421875 -69.8125 C 56.429688 -72.144531 52.738281 -73.910156 50.34375 -75.109375 C 40.351562 -80.035156 32.628906 -86.191406 27.171875 -93.578125 C 21.710938 -100.972656 18.984375 -108.9375 18.984375 -117.46875 C 18.984375 -132.25 24.441406 -144.332031 35.359375 -153.71875 C 46.273438 -163.101562 58.726562 -167.796875 72.71875 -167.796875 Z M 72.71875 -167.796875 "/></g></g></g><g fill="#ffffff" fill-opacity="1"><g transform="translate(330.199599, 209.516925)"><g><path d="M 138.640625 -164.8125 L 138.640625 -58.53125 C 138.640625 -38.289062 133.175781 -22.972656 122.25 -12.578125 C 111.332031 -2.191406 95.351562 3 74.3125 3 C 53.269531 3 37.285156 -2.191406 26.359375 -12.578125 C 15.441406 -22.972656 9.984375 -38.289062 9.984375 -58.53125 L 9.984375 -164.8125 L 47.546875 -164.8125 L 47.546875 -69.515625 C 47.546875 -56.203125 49.640625 -46.945312 53.828125 -41.75 C 58.023438 -36.550781 64.851562 -33.953125 74.3125 -33.953125 C 83.769531 -33.953125 90.59375 -36.550781 94.78125 -41.75 C 98.976562 -46.945312 101.078125 -56.203125 101.078125 -69.515625 L 101.078125 -164.8125 Z M 138.640625 -164.8125 "/></g></g></g><g fill="#ffffff" fill-opacity="1"><g transform="translate(460.051131, 209.516925)"><g><path d="M 72.71875 -167.796875 C 81.632812 -167.796875 90.351562 -166.5 98.875 -163.90625 C 107.40625 -161.3125 113.734375 -158.75 117.859375 -156.21875 L 123.859375 -152.21875 L 108.671875 -122.25 C 107.472656 -123.050781 105.804688 -124.082031 103.671875 -125.34375 C 101.546875 -126.613281 97.550781 -128.3125 91.6875 -130.4375 C 85.832031 -132.570312 80.375 -133.640625 75.3125 -133.640625 C 69.050781 -133.640625 64.222656 -132.304688 60.828125 -129.640625 C 57.429688 -126.984375 55.734375 -123.390625 55.734375 -118.859375 C 55.734375 -116.597656 56.53125 -114.5 58.125 -112.5625 C 59.726562 -110.632812 62.457031 -108.570312 66.3125 -106.375 C 70.175781 -104.175781 73.570312 -102.410156 76.5 -101.078125 C 79.4375 -99.742188 83.96875 -97.75 90.09375 -95.09375 C 100.75 -90.5625 109.835938 -84.398438 117.359375 -76.609375 C 124.890625 -68.816406 128.65625 -59.992188 128.65625 -50.140625 C 128.65625 -40.679688 126.957031 -32.421875 123.5625 -25.359375 C 120.164062 -18.304688 115.503906 -12.78125 109.578125 -8.78125 C 103.648438 -4.789062 97.085938 -1.832031 89.890625 0.09375 C 82.703125 2.03125 74.910156 3 66.515625 3 C 59.328125 3 52.269531 2.265625 45.34375 0.796875 C 38.414062 -0.660156 32.617188 -2.488281 27.953125 -4.6875 C 23.296875 -6.882812 19.101562 -9.050781 15.375 -11.1875 C 11.644531 -13.320312 8.914062 -15.117188 7.1875 -16.578125 L 4.59375 -18.78125 L 23.375 -50.34375 C 24.96875 -49.007812 27.160156 -47.3125 29.953125 -45.25 C 32.753906 -43.1875 37.71875 -40.421875 44.84375 -36.953125 C 51.96875 -33.492188 58.257812 -31.765625 63.71875 -31.765625 C 79.570312 -31.765625 87.5 -37.15625 87.5 -47.9375 C 87.5 -50.207031 86.929688 -52.304688 85.796875 -54.234375 C 84.660156 -56.171875 82.660156 -58.101562 79.796875 -60.03125 C 76.941406 -61.957031 74.414062 -63.488281 72.21875 -64.625 C 70.019531 -65.757812 66.421875 -67.488281 61.421875 -69.8125 C 56.429688 -72.144531 52.738281 -73.910156 50.34375 -75.109375 C 40.351562 -80.035156 32.628906 -86.191406 27.171875 -93.578125 C 21.710938 -100.972656 18.984375 -108.9375 18.984375 -117.46875 C 18.984375 -132.25 24.441406 -144.332031 35.359375 -153.71875 C 46.273438 -163.101562 58.726562 -167.796875 72.71875 -167.796875 Z M 72.71875 -167.796875 "/></g></g></g><g fill="#ffffff" fill-opacity="1"><g transform="translate(575.519117, 209.516925)"><g><path d="M 11.984375 -164.8125 L 72.109375 -164.8125 C 88.890625 -164.8125 102.472656 -160.484375 112.859375 -151.828125 C 123.253906 -143.171875 128.453125 -130.582031 128.453125 -114.0625 C 128.453125 -97.550781 123.191406 -84.597656 112.671875 -75.203125 C 102.148438 -65.816406 88.628906 -61.125 72.109375 -61.125 L 49.546875 -61.125 L 49.546875 0 L 11.984375 0 Z M 49.546875 -91.09375 L 60.125 -91.09375 C 68.519531 -91.09375 75.410156 -92.789062 80.796875 -96.1875 C 86.191406 -99.582031 88.890625 -105.144531 88.890625 -112.875 C 88.890625 -120.726562 86.191406 -126.351562 80.796875 -129.75 C 75.410156 -133.144531 68.519531 -134.84375 60.125 -134.84375 L 49.546875 -134.84375 Z M 49.546875 -91.09375 "/></g></g></g><g fill="#ffffff" fill-opacity="1"><g transform="translate(689.788464, 209.516925)"><g><path d="M 95.6875 -164.8125 L 162.203125 0 L 121.859375 0 L 109.671875 -32.96875 L 46.9375 -32.96875 L 34.765625 0 L -5.59375 0 L 60.921875 -164.8125 Z M 96.890625 -65.921875 L 78.515625 -113.859375 L 78.109375 -113.859375 L 59.734375 -65.921875 Z M 96.890625 -65.921875 "/></g></g></g><g fill="#ffffff" fill-opacity="1"><g transform="translate(827.630874, 209.516925)"><g><path d="M 150.421875 -164.8125 L 68.71875 -32.96875 L 145.03125 -32.96875 L 145.03125 0 L 3.203125 0 L 84.703125 -131.84375 L 14.78125 -131.84375 L 14.78125 -164.8125 Z M 150.421875 -164.8125 "/></g></g></g></svg>